# xmcd
#
# Track frame offsets:
#	150
#	13899
#	26716
#	42568
#	60653
#	75017
#	92094
#	106377
#	133231
#	149140
#	162616
#	177877
#	197691
#	214765
#
# Disc length: 3092 seconds
#
# Revision: 0
# Processed by: cddbd v1.5.2PL0 Copyright (c) Steve Scherf et al.
# Submitted via: EasyCDDAExtractor 2010.6.0.0
#
DISCID=cb0c120e
DTITLE=Various Artist - Mr Music Country  07 2011
DYEAR=2011
DGENRE=Country
TTITLE0=Damon Gray - You're still on my mind (ext.ver.)
TTITLE1=Teea Goans - Walk out backwards
TTITLE2=Bart Connell - Long shadow
TTITLE3=Robert Allen - Long black train
TTITLE4=Eleven Hundred Springs - Straight to bed
TTITLE5=The Dixons - Thanks a lot
TTITLE6=Red Jenkins and Leona Williams - Three nickels and a dime
TTITLE7=John Anderson - Bonnie blue
TTITLE8=Arty Hill and The Long Gone Daddys - I might have been a lawyer but
TTITLE9=Ken Mellons - Tennessee
TTITLE10=The Starline Rhythm Boys - I'm fed up drinking here
TTITLE11=Zoe Muth - I've been gone
TTITLE12=The Great Recession Orchestra - You rascal you
TTITLE13=Randy Archer - Someday I won't wake up loving you
EXTD=
EXTT0=
EXTT1=
EXTT2=
EXTT3=
EXTT4=
EXTT5=
EXTT6=
EXTT7=
EXTT8=
EXTT9=
EXTT10=
EXTT11=
EXTT12=
EXTT13=
PLAYORDER=
